<svg width="37" height="32" viewBox="0 0 37 32" fill="none" xmlns="http://www.w3.org/2000/svg">
<path d="M18.5557 31.5554C22.5168 31.5554 26.3645 30.3979 29.4881 28.2665C32.6117 26.1352 34.8323 23.1521 35.7976 19.7906C36.7628 16.4291 36.4174 12.8819 34.8162 9.7117C33.215 6.54156 30.4496 3.93013 26.959 2.29183C23.4683 0.65353 19.4524 0.0822079 15.5483 0.668526C11.6443 1.25484 8.07594 2.96521 5.40941 5.52822C2.74289 8.09123 1.13099 11.36 0.829505 14.8159C0.528024 18.2719 1.55423 21.7169 3.74528 24.6043L12.6315 19.4417C11.7551 18.2867 11.3446 16.9087 11.4652 15.5263C11.5858 14.144 12.2306 12.8364 13.2972 11.8112C14.3638 10.786 15.7912 10.1019 17.3528 9.86735C18.9144 9.63282 20.5208 9.86135 21.917 10.5167C23.3133 11.172 24.4194 12.2166 25.0599 13.4846C25.7004 14.7527 25.8386 16.1716 25.4525 17.5162C25.0663 18.8608 24.1781 20.054 22.9287 20.9066C21.6792 21.7591 20.1402 22.2221 18.5557 22.2221V31.5554Z" fill="#D53F8C"/>
<path d="M18.5557 31.5554C21.4793 31.5554 24.3577 30.9246 26.9361 29.7187C29.5145 28.5128 31.7131 26.7691 33.3374 24.6421C34.9617 22.5151 35.9613 20.0704 36.2479 17.5246C36.5345 14.9788 36.099 12.4104 34.9802 10.047C33.8614 7.68364 32.0938 5.59814 29.8338 3.97529C27.5739 2.35243 24.8914 1.2423 22.024 0.743232C19.1566 0.244166 16.1928 0.371568 13.3951 1.11415C10.5974 1.85674 8.05221 3.19158 5.98493 5.00045L13.5274 11.6001C14.3543 10.8766 15.3724 10.3426 16.4915 10.0456C17.6105 9.74856 18.7961 9.6976 19.943 9.89723C21.09 10.0969 22.163 10.5409 23.067 11.19C23.9709 11.8392 24.678 12.6734 25.1255 13.6188C25.573 14.5641 25.7472 15.5915 25.6326 16.6098C25.518 17.6281 25.1181 18.606 24.4684 19.4568C23.8187 20.3076 22.9392 21.005 21.9079 21.4874C20.8765 21.9698 19.7251 22.2221 18.5557 22.2221V31.5554Z" fill="#805AD5"/>
<path d="M18.5557 31.5554C21.8899 31.5554 25.1568 30.735 27.9835 29.1879C30.8102 27.6408 33.0827 25.4293 34.5415 22.806C36.0003 20.1826 36.5866 17.2532 36.2335 14.3523C35.8803 11.4513 34.602 8.69567 32.5444 6.40009L24.1512 12.16C24.9742 13.0782 25.4856 14.1804 25.6268 15.3408C25.7681 16.5012 25.5336 17.673 24.95 18.7223C24.3665 19.7716 23.4575 20.6562 22.3268 21.2751C21.1962 21.894 19.8894 22.2221 18.5557 22.2221V31.5554Z" fill="#38B2AC"/>
<path d="M18.5557 31.5554C22.2043 31.5554 25.7645 30.5732 28.7531 28.742C31.7418 26.9107 34.0141 24.3192 35.2618 21.3192L25.2381 18.1276C24.7391 19.3276 23.8301 20.3642 22.6347 21.0967C21.4392 21.8292 20.0151 22.2221 18.5557 22.2221V31.5554Z" fill="#F6E05E"/>
<ellipse cx="18.5559" cy="15.9999" rx="2.84444" ry="2.48889" fill="#6B46C1"/>
<ellipse cx="11.1599" cy="27.0756" rx="2.84445" ry="2.48889" fill="#F6AD55"/>
</svg>
